<?xml version="1.0" encoding="UTF-8" standalone="no"?>
<!-- Created with Inkscape (http://www.inkscape.org/) -->

<svg
   width="512"
   height="512"
   viewBox="0 0 135.46666 135.46666"
   version="1.1"
   id="svg5"
   inkscape:version="1.1.1 (3bf5ae0d25, 2021-09-20, custom)"
   sodipodi:docname="axyl-logo.svg"
   xmlns:inkscape="http://www.inkscape.org/namespaces/inkscape"
   xmlns:sodipodi="http://sodipodi.sourceforge.net/DTD/sodipodi-0.dtd"
   xmlns="http://www.w3.org/2000/svg"
   xmlns:svg="http://www.w3.org/2000/svg">
  <sodipodi:namedview
     id="namedview7"
     pagecolor="#ffffff"
     bordercolor="#666666"
     borderopacity="1.0"
     inkscape:pageshadow="2"
     inkscape:pageopacity="0.0"
     inkscape:pagecheckerboard="0"
     inkscape:document-units="mm"
     showgrid="false"
     width="256mm"
     inkscape:zoom="0.22897889"
     inkscape:cx="163.77055"
     inkscape:cy="587.39039"
     inkscape:window-width="1340"
     inkscape:window-height="699"
     inkscape:window-x="10"
     inkscape:window-y="53"
     inkscape:window-maximized="0"
     inkscape:current-layer="layer1"
     units="px" />
  <defs
     id="defs2" />
  <g
     inkscape:label="Layer 1"
     inkscape:groupmode="layer"
     id="layer1">
    <path
       id="path24524-1"
       style="opacity:1;fill:#65a2ba;fill-opacity:1;stroke:none;stroke-width:0.347553px;stroke-linecap:butt;stroke-linejoin:miter;stroke-opacity:1"
       d="M 68.081187,-2.2358333e-6 C 62.881213,13.024573 57.263285,25.992496 51.282046,38.909201 c 4.777343,5.34489 9.885609,10.4253 16.25885,14.49607 C 60.71012,50.717449 55.124699,46.788939 49.352368,43.046276 34.766016,74.117704 18.0995,104.89358 0.06879075,135.44084 L 34.483604,118.17293 V 79.759991 L 54.508165,91.63831 h 4.149222 l -2.09463,2.095025 c -0.622147,0.622252 -0.622147,1.624148 0,2.24639 l 3.311634,3.312262 c 0.622147,0.622241 1.623849,0.622241 2.245996,0 l 1.969059,-1.96944 v 2.750153 c 0,0.88 0.708439,1.58857 1.588284,1.58857 h 4.683399 c 0.879858,0 1.588288,-0.70857 1.588288,-1.58857 v -2.670041 l 1.889628,1.889987 c 0.622158,0.622261 1.623849,0.622261 2.245997,0 l 3.311643,-3.312242 c 0.622147,-0.622262 0.622147,-1.624157 0,-2.24639 l -2.09531,-2.095704 h 4.281567 L 101.60886,79.759312 v 38.613218 l 33.78902,17.09414 c -4.16325,-7.52786 -8.29123,-15.08466 -12.37298,-22.66571 -5.91338,-4.73453 -13.73439,-9.1936 -21.05902,-13.897291 5.58292,2.040481 12.17013,3.631011 16.72853,5.811191 C 100.31446,70.199268 83.015276,35.193095 68.081187,-2.2358333e-6 Z M 51.123227,59.311513 A 10.934888,10.936898 0 0 1 62.05793,70.248227 10.934888,10.936898 0 0 1 51.123227,81.184944 10.934888,10.936898 0 0 1 40.187844,70.248227 10.934888,10.936898 0 0 1 51.123227,59.311513 Z m 33.36682,0 A 10.934888,10.936898 0 0 1 95.424748,70.248227 10.934888,10.936898 0 0 1 84.490047,81.184944 10.934888,10.936898 0 0 1 73.555324,70.248227 10.934888,10.936898 0 0 1 84.490047,59.311513 Z m -33.36682,5.585112 a 5.3507825,5.3517661 0 0 0 -5.351279,5.351602 5.3507825,5.3517661 0 0 0 5.351279,5.351605 5.3507825,5.3517661 0 0 0 5.3506,-5.351605 5.3507825,5.3517661 0 0 0 -5.3506,-5.351602 z m 33.36682,0 a 5.3507825,5.3517661 0 0 0 -5.35062,5.351602 5.3507825,5.3517661 0 0 0 5.35062,5.351605 5.3507825,5.3517661 0 0 0 5.350589,-5.351605 5.3507825,5.3517661 0 0 0 -5.350589,-5.351602 z m -16.533752,17.76557 a 5.382001,5.3829904 0 0 1 5.38185,5.382807 5.382001,5.3829904 0 0 1 -5.38185,5.382828 5.382001,5.3829904 0 0 1 -5.382509,-5.382828 5.382001,5.3829904 0 0 1 5.382509,-5.382807 z m 0.117481,1.837699 a 3.5928401,3.5935006 0 0 0 -0.331904,0.006 3.5928401,3.5935006 0 0 0 -3.372052,3.801035 3.5928401,3.5935006 0 0 0 3.800337,3.373361 3.5928401,3.5935006 0 0 0 3.372054,-3.801715 3.5928401,3.5935006 0 0 0 -3.468435,-3.377436 z m -27.963273,5.28373 v 25.566546 l 9.731965,-4.88317 3.22748,-1.91512 V 97.497701 Z m 55.871539,0 -12.881373,7.667914 v 11.147182 l 4.702398,2.78949 8.178975,4.13776 z" />
  </g>
</svg>
